<svg height="260" viewBox="0 0 260 260" width="260" xmlns="http://www.w3.org/2000/svg" xmlns:xlink="http://www.w3.org/1999/xlink"><mask id="a" fill="#fff"><path d="m.86591943 173.933077h114.87736757v-173.1297793h-114.87736757z" fill="#fff" fill-rule="evenodd"/></mask><g fill="none" fill-rule="evenodd" transform="translate(48 14)"><g transform="translate(67)"><path d="m2.39536585 22.3852273 41.66478045-20.35000003" fill="#969894"/><path d="m2.3964878 24.0897727c-.62492682 0-1.22629268-.3556818-1.51687804-.9647727-.40390244-.8477273-.05273171-1.8670455.78536585-2.2761364l41.66478049-20.3488636c.8347317-.40909091 1.8422439-.05340909 2.2472683.79431818.4027805.84886364.0516097 1.86704546-.7864878 2.27613637l-41.66365855 20.34999995c-.23560976.1147728-.48468293.1693182-.73039025.1693182" fill="#0a0b09"/></g><path d="m53.5267129 2-36.5267129 39.8901408 80.4786168 9.1098592 42.5213832-38.1211718z" fill="#1a6193"/><path d="m21.1558745 40.7980319 76.8410424 8.7697101 39.4568031-35.6639352-82.3807063-10.44892102zm77.4160626 12.2019681c-.0656519 0-.12904-.0033562-.1946919-.0100686l-80.8741076-9.2295073c-.6304848-.0727173-1.1681514-.485528-1.3934054-1.073979-.2241221-.5862136-.0996098-1.247382.3248638-1.7150103l36.7062138-40.41405496c.3735368-.41057324.9225226-.61641922 1.479432-.54258316l86.8982372 11.02059112c.655387.0827859 1.203241.5347521 1.402461 1.1578837.199219.6231316.014715 1.304437-.472015 1.7452159l-42.7303432 38.6218524c-.3158083.2852757-.7244349.4396602-1.1466447.4396602z" fill="#0a0b09"/><path d="m34.1977414 122.147911c3.2993203 8.92359 18.3354169-16.942503 14.035295-23.5864898-4.3001218-6.6439871-11.9270775-14.6102778-15.4063816-16.8495724-3.4804506-2.2392946-13.8197731.6841045-13.8266515 10.4854971-.005732 8.6772671 7.4607286 9.0232381 15.1977381 29.9505651" fill="#f9ce22"/><path d="m29.4706132 82.3322112c-1.2208117 0-2.7471092.333316-4.2009953 1.1021651-1.8193375.9610613-4.8708011 3.3231611-4.8753268 8.3417899-.0022629 3.5420387 1.3803431 5.395276 3.8921152 8.7606568 2.917955 3.908687 6.9141616 9.262854 11.0065398 20.392277.1923429.522195.3812915.713296.4333372.73885.2794629.071108 1.9177719-.54886 4.580024-4.32422 4.651304-6.595214 7.5273961-15.691409 5.8076242-18.3634927-4.0969038-6.3641146-11.3934884-14.0770483-14.7051806-16.2191595-.4254173-.2744302-1.1110632-.4288666-1.9381377-.4288666zm6.2669844 42.6677888c-.1233257 0-.2466515-.006666-.3699772-.017777-.8508345-.087773-2.4076806-.585525-3.2664351-2.919849-3.9271895-10.679446-7.7559447-15.810291-10.5517054-19.555653-2.6430178-3.5398163-4.5528697-6.0985726-4.5494754-10.7327769.0045257-4.9297445 2.4314406-9.0395316 6.6607216-11.2749713 3.3784466-1.7832409 7.3316589-1.9987853 9.6160138-.5210841 3.6624351 2.3698772 11.321077 10.4094606 15.7064952 17.2213298 3.0016807 4.6630915-1.2536232 14.8047885-4.8470412 20.4844935-2.1372691 3.377603-5.295087 7.316288-8.3985963 7.316288z" fill="#0a0b09"/><path d="m148.991215 119.880993c.573458 46.086191-27.004471 68.119007-60.3169848 68.119007-33.3125135 0-70.6742302-.47273-70.6742302-38.094476 0-18.464427 12.1668001-24.198658 18.7198038-36.490768 10.7241233-20.1161898-5.2683666-52.7424146 34.2404324-63.3235304 32.1565658-8.6119644 76.8930928-21.792539 78.0309788 69.7897674" fill="#f9ce22"/><path d="m103.884124 46.2910073c-10.3848629 0-21.4417138 2.9681758-31.7218949 5.7278434l-1.2246619.327815c-25.3993526 6.8071801-26.7084352 22.5779835-28.0940591 39.2742511-.6618577 7.9757181-1.3462276 16.2223852-4.9954499 23.0719362-2.2174484 4.161244-5.043851 7.582117-7.7779537 10.890373-5.4985968 6.654423-10.6932794 12.93866-10.6932794 24.736657 0 36.335065 36.5428753 36.335065 68.7836756 36.335065 16.5835883 0 30.8011473-5.466929 41.1150963-15.809829 11.608399-11.643009 17.604515-29.091914 17.338871-50.460103-.437861-35.2858348-7.239913-57.3687506-20.794488-67.5109471-6.492509-4.85813-14.019453-6.5830616-21.935856-6.5830616zm-15.7236233 143.7089927c-32.149626 0-72.1605007 0-72.1605007-39.680117 0-12.992181 5.8250233-20.040205 11.4575675-26.856305 2.6271699-3.180029 5.3443885-6.468215 7.4031262-10.332864 3.3272983-6.244097 3.9542621-13.7927631 4.6172454-21.7840914 1.3541069-16.3160468 2.8883111-34.8086072 30.5782767-42.2279317l1.2224107-.3289301c17.9309412-4.8146443 40.2450015-10.8034017 56.5764525 1.4149569 14.443807 10.8078618 21.684845 33.7504558 22.136214 70.1390423.2769 22.282504-6.055773 40.559866-18.313648 52.851816-10.962299 10.992954-26.010558 16.804424-43.5171443 16.804424z" fill="#0a0b09"/><path d="m29.9614905 75.6919793c-14.3209558 4.0699584-15.7905062-2.5900744-12.4856702-3.3305715 3.3048359-.740497 12.1177318-5.9206458 16.5241797-10.3614078z" fill="#e8802c"/><g transform="translate(12 59)"><path d="m5.72341748 14.6070769c.03266019 0 .13739805.1985385.48765048.4327693.67460194.4506153 3.3966602 1.7266153 10.76322334-.1773462l2.256932-7.51769231c-4.7109515 3.44319231-10.50194175 6.55846151-13.30283495 7.17526921-.22186408.0490769-.20947573.0881154-.20497087.087zm4.44854372 4.6199231c-3.82124275 0-5.73130101-1.1455-6.64803887-2.0634615-1.00345631-1.0049616-1.38749515-2.325577-1.02823301-3.5346539.35475728-1.1934615 1.36384466-2.0813077 2.69840777-2.3757692 2.91126213-.6413462 11.62477671-5.56130771 16.06656311-9.95926925.5450874-.54207692 1.392-.64692307 2.0587184-.25430769.6644661.3915.9741748 1.18007692.7545631 1.914l-4.128699 13.75603844c-.1655534.5498846-.6036505.9781923-1.1611262 1.1332308-3.6106408 1.0094231-6.4250485 1.3841923-8.6121553 1.3841923z" fill="#0a0b09" mask="url(#a)"/><path d="m114.053903 117.361885c-6.382253 24.167038-31.5339807 47.217577-60.0654758 53.909884-24.5435728 5.7565-51.80582526-13.012077-51.42966992-24.538461.4223301-12.979731 16.89320392-12.269231 25.15172812 1.487923 12.6518835 21.074077 55.9356505 6.319769 72.0776699-23.051654z" fill="#e8802c" mask="url(#a)"/><path d="m11.5887379 139.104077c-.774835 0-1.5102525.088115-2.19386411.262115-3.19056311.814231-5.01840777 3.44877-5.14792233 7.420654-.11262136 3.484462 2.99234951 8.133385 8.30920384 12.436539 9.5559224 7.737423 25.9513398 13.960153 41.042602 10.419923 26.2362718-6.153577 49.7899027-26.320846 57.6317277-48.824846l-10.196737 5.581384c-10.5053208 18.712808-32.9845441 33.043269-52.5029519 33.410231-10.0728544.186269-18.0025243-3.620539-22.2731262-10.733346-4.0994175-6.830616-10.0570874-9.972654-14.668932-9.972654zm33.0228349 34.895923c-13.1372815 0-26.0234175-5.571346-34.1940971-12.186692-6.216699-5.0315-9.696699-10.549308-9.54691259-15.134654.17906796-5.505539 2.97883495-9.353616 7.6807767-10.552654 5.97794179-1.521385 14.97300969 1.848192 20.61196119 11.239731 4.6422524 7.734077 13.0528155 9.222 19.3033009 9.099307 18.5487379-.349115 39.9738253-14.147538 49.8383301-32.095192.1531651-.279961.3851651-.510846.6667185-.664769l14.2646215-7.807692c.591262-.324577 1.319922-.267693 1.854874.142769.533825.412692.768077 1.097538.596893 1.745577-6.64466 25.159731-32.4293206 48.339654-61.3099419 55.1145-3.2243495.756231-6.5038835 1.099769-9.7665243 1.099769z" fill="#0a0b09" mask="url(#a)"/></g><path d="m33.431 80c-.147.111-.286.232-.431.344.217-.081.434-.16.653-.238-.074-.036-.147-.067-.222-.106" fill="#5798ad"/><path d="m50 77.0176071c-.2496533-.0033013-.4937587-.0176071-.7434119-.0176071-5.3525659 0-10.4865465.9232731-15.2565881 2.608054 6.0837725 2.996511 11.3797503.6998828 16-2.5904469" fill="#5798ad"/><g transform="translate(0 137)"><path d="m20.893 6.59384091c-7.4448667-8.78881818-19.0026-4.95234091-19.19073333 6.03924999-.15526667 9.0304773 11.02733333 28.3375909 21.06980003 33.1819091 8.7176 4.2062045 9.0882-5.9757727 8.3798666-9.5650227-1.2557333-6.3633182-6.2956666-24.9755228-10.2589333-29.65613639" fill="#f9ce22"/><path d="m11.4806667 3.41329545c-.8613334 0-1.71473337.13920455-2.53753337.42429546-3.39546666 1.17488636-5.4672 4.47347727-5.54086666 8.82334089-.14393334 8.3979318 10.81653333 27.1660455 20.11893333 31.654 1.9810667.9566137 3.4566667 1.0869091 4.3837333.3908864 1.785-1.3419318 2.0660667-5.6639546 1.5776-8.1373409-1.3248666-6.7152273-6.29-24.6481137-9.8962666-28.90554548-2.3267334-2.74734091-5.2677334-4.24963637-8.1056-4.24963637zm14.9883333 45.06663635c-1.2160667 0-2.6871333-.3173863-4.4460667-1.1648636-10.6148-5.1216137-22.1861333-25.0601591-22.02066663-34.7098182.09746666-5.71852273 3.0906-10.28554545 7.81093333-11.92036364 4.9096-1.69272727 10.4198667.15813637 14.3865333 4.83986364 4.5174667 5.3343182 9.6480667 25.4744318 10.6216 30.4078409.4136667 2.0969773.7797334 8.6975-2.8503333 11.4270227-.7899333.5924546-1.9334667 1.1203182-3.502 1.1203182z" fill="#0a0b09"/></g><path d="m143 75.5251425c-8.682216-24.2945317-26.800835-40.7420619-51.7139358-41.4888614-24.913101-.7467996-45.6736411 10.0918852-56.6206842 27.2850936-7.3833373 11.5944548-1.8866012 17.9400079 1.5106398 19.4358496 3.3972411 1.4958416 17.7403928-4.1107613 21.8929538-11.5866056 9.8146294 5.9800027 20.7605401 3.3628405 30.1980757.3733998" fill="#f9ce22"/><g transform="translate(29 32)"><path d="m8.57212403 50.169587c-.8624186 0-1.59807752-.1164131-2.16283721-.3625435-2.01004651-.8747609-4.54637209-3.0655435-5.63854263-6.5878696-.93485272-3.0112174-1.10575194-8.0635435 3.38176744-15.0350217 11.65623257-18.1116522 33.35930237-28.50234785 58.07631007-27.75397829 24.4216124.72397826 43.8248993 16.07941309 53.2345423 42.12932609.312372.8658913-.150527 1.8160435-1.034449 2.1231522-.882791.3048913-1.853861-.1474565-2.166233-1.0133479-8.917318-24.6862173-27.1910851-39.233413-50.1357208-39.91415213-23.4946821-.69293478-44.0931317 9.09906523-55.10198446 26.20180433-3.01054263 4.677587-4.04951938 8.9294348-3.0060155 12.2954348.76055814 2.4524348 2.50576744 3.9646957 3.76883721 4.5157174 2.14586046.9423913 15.74989145-3.6952826 19.70434105-10.7388261.2229613-.3980217.6043721-.6896087 1.05369-.8060217.4504496-.1153044.9269302-.0465652 1.3230542.1918043 9.2851473 5.5966957 19.7213179 3.0378261 28.7744496.2017826.8963721-.2771739 1.8482016.2017826 2.1345427 1.0776522.2852093.8747609-.2071163 1.8105-1.1000931 2.0898913-9.9857209 3.1298478-20.5124341 5.2818261-30.1371162.2771739-4.6323876 6.3029348-15.4284651 11.1080218-20.96854267 11.1080218" fill="#0a0b09"/><path d="m91.6042481 12.4406739c-6.7782481-.5388261-1.5086667 4.4358913.7548992 6.2829783 2.2635659 1.8470869 18.4854107 16.2601304 33.5766047 11.8253478 15.090062-4.4347826 19.618326-16.6293261 16.598729-17.3688261-3.017334-.7395-36.970822.3691957-50.9302329-.7395" fill="#e8802c"/><path d="m90.1838605 14.0793261c.4425271.7095652 1.5267752 1.9501956 3.2617984 3.366l.438.3636522c11.6618911 9.741 22.8676741 13.6990434 31.5642941 11.146826 8.285783-2.4358043 13.375411-7.4648478 15.37414-11.3608043.748109-1.4568261.897504-2.4125217.897504-2.8615435-2.066636-.2117608-9.684667-.1740652-17.070682-.1385869-11.296326.0554347-25.3564654.1241739-33.1816127-.4966957-.5907907-.0476739-1.0050232-.0410217-1.2834418-.0188478zm29.6832715 18.9853043c-8.508744.0011087-18.11645-4.3139347-28.1870545-12.7245l-.4074418-.3392608c-5.6611783-4.6199348-4.7908373-6.7065-4.5044962-7.3927826.8952403-2.1497609 3.9646357-1.9058479 4.9730543-1.8260218 7.6791473.6097826 21.6589302.5388261 32.8918762.4867174 11.016775-.0565435 16.834139-.065413 18.31338.2971304 1.318527.3237392 2.130015 1.4656957 2.167364 3.056674.09507 4.0334347-5.44614 13.6258695-18.690264 17.5185-2.099457.6175434-4.288325.9235434-6.556418.9235434z" fill="#0a0b09"/></g><g fill="#0a0b09"><path d="m55.6077577 59.15591c-2.6476275 1.9062485-1.8494539 4.2632197 1.1101164 4.618044 2.9606803.3548244 3.1915845.5423592 5.9213606-1.4214284 2.9595703-2.1310771 3.3303491-5.6835826 0-5.3276927-3.330349.3558899-5.5505818 1.0655386-7.031477 2.1310771"/><path d="m48 61.5c0 1.9331667-1.5668333 3.5-3.5 3.5-1.932 0-3.5-1.5668333-3.5-3.5 0-1.9343333 1.568-3.5 3.5-3.5 1.9331667 0 3.5 1.5656667 3.5 3.5"/><path d="m87 52.5c0 1.9331667-1.5668333 3.5-3.5 3.5s-3.5-1.5668333-3.5-3.5c0-1.9343333 1.5668333-3.5 3.5-3.5s3.5 1.5656667 3.5 3.5"/></g><path d="m46.9842286 47.7717197s7.5359651-3.3313259 14.5846861.2282803c0 0 30.0077018-15.5913214 49.4108143-9.2129009 0 0 1.082514-5.8189099-12.57382-19.806674 0 0-33.7177327-8.3534927-51.4216804 9.2520667 0 0-6.7145144 22.2383068 0 19.5392279" fill="#387bb2"/><path d="m49.1963706 29.6601399c-2.3736705 7.8482381-3.4991764 15.6222794-2.4656644 17.0109757.0613293-.0110741.1590019-.0343298.2998321-.088593.641686-.2724237 8.0284575-3.2546877 15.3516282-.0941302 4.7405264-2.3078493 29.475535-13.6876284 47.8152625-9.5558693-.847253-2.5592322-3.45829-7.6732668-11.4833408-15.8027878-4.0511399-.8726417-33.5755112-6.578035-49.5177176 8.5304046zm-2.5428938 20.3398601c-1.0528194 0-1.767192-.4551469-2.159018-.8039821-3.4537472-3.0686422-.0579221-15.6355683 1.5616253-20.8968889.0817724-.2635644.2282812-.5027657.4270335-.696563 7.6275457-7.4373877 19.3289458-11.4484387 33.8378643-11.5979395 10.822347-.1140636 19.3221314 1.9180398 19.6787498 2.0044181.3077823.0753041.5883073.2325568.8109093.4551469 13.991027 14.0519673 13.270976 20.3841566 13.142638 21.0596787-.088586.4728655-.383875.8837158-.807502 1.1273467-.423626.2447384-.935839.2978942-1.401488.1483934-18.6656805-6.0187913-48.2513811 8.8615212-48.5478059 9.0121294-.4883628.2469532-1.0698553.2513829-1.5604896.0088593-6.3157804-3.1273351-13.1869316-.2181604-13.256211-.1882602-.0170359.0077519-.0352075.0155038-.0533792.0221483-.6303287.2491679-1.1879709.3455129-1.6729265.3455129z" fill="#0a0b09"/><g transform="translate(104)"><path d="m10.01475 2.40444444c-.4725-1.47888888-5.10975-.03666666-6.231375 1.04888889-1.121625 1.08555556-1.81575 2.82666667-1.3995 4.32222223 2.052 7.36666664 3.555 10.99555554 2.230875 21.61111114-1.3995 11.2255555.61425 22.7-2.0745 33.6944444-.34875 1.4277778-.432 3.4233333.991125 3.8511111.446625.1344445.925875.05 1.38825-.0144444 2.428875-.3411111 4.939875-.0988889 7.2585.6966666.5895.2022223 1.249875.4388889 1.812375.17.69075-.3288888.8415-1.2188888.9-1.9755555.73125-9.3822222.95625-18.8022222.673875-28.2077778-.17325-5.7744444-.545625-11.5888889-2.04075-17.1744444-.657-2.4555556-2.09925-4.9477778-1.97325-7.4855556.109125-2.2177778 1.55025-4.33999999 1.4715-6.55888888-.077625-2.21888889-1.69875-4.69333333-3.9375-4.49" fill="#d9dad5"/><path d="m7.08975 65.1066667c1.940625 0 3.843.3155555 5.641875.9333333.124875.0433333.280125.0966667.415125.1366667.0225-.1133334.043875-.2722223.06075-.4944445.723375-9.2822222.9495-18.7122222.6705-28.0311111-.1665-5.49-.51975-11.3255555-1.985625-16.7977778-.19575-.7311111-.47475-1.4833333-.7695-2.28-.66825-1.8044444-1.360125-3.6711111-1.258875-5.7133333.063-1.2666667.448875-2.4088889.82125-3.51444444.349875-1.04111112.68175-2.02444445.651375-2.90555556-.034875-.95222222-.48375-1.96444444-1.11825-2.51666667-.478125-.41555555-.853875-.38222222-.979875-.37111111l-.082125-.88-.7515.23333334c.11025.34333333.383625.52555555.491625.55555555-.741375-.20555555-3.384.65222222-3.931875 1.18222222-.777375.75222223-1.177875 1.88333334-.954 2.69111111.198.71.3915 1.38555556.577125 2.03555556 1.769625 6.2033333 2.9385 10.3011111 1.701 20.22-.574875 4.6177778-.56025 9.4055556-.5445 14.0344444.021375 6.53.041625 13.2822223-1.56375 19.8477778-.239625.9844445-.176625 1.6333334-.093375 1.8666667.11925-.0033333.33525-.0344445.489375-.0566667.8415-.1177778 1.68075-.1755555 2.51325-.1755555zm6.345 4.4644444c-.703125 0-1.337625-.22-1.783125-.3733333-2.0925-.7177778-4.3335-.9344445-6.494625-.63-.62325.0888889-1.344375.1922222-2.118375-.0422222-2.048625-.6155556-2.86875-2.8522223-2.138625-5.8366667 1.50975-6.1733333 1.490625-12.43 1.46925-19.0544445-.01575-4.7322222-.030375-9.6255555.5715-14.4522222 1.153125-9.2522222.115875-12.8866666-1.602-18.9077778-.187875-.65666662-.3825-1.33888884-.58275-2.05666662-.54675-1.96444445.194625-4.35777778 1.846125-5.95555556 1.20375-1.16444444 4.944375-2.56888889 7.11-2.03555555.00225.00111111.0045.00111111.00675.00222222.9855.08111111 1.915875.48555555 2.72925 1.19333333 1.328625 1.15444445 2.19375 3.03333334 2.26125 4.90111111.05175 1.48222223-.41175 2.86-.822375 4.07555557-.315.9333333-.612 1.8144444-.6525 2.6233333-.066375 1.3688889.47925 2.8444445 1.058625 4.4055556.30825.8333333.626625 1.6944444.86175 2.5733333 1.5525 5.7977778 1.924875 11.8622222 2.095875 17.5511111.2835 9.4366667.055125 18.9866667-.678375 28.3844445-.048375.6322222-.196875 2.5622222-1.8495 3.35-.4365.2077777-.874125.2844444-1.288125.2844444z" fill="#0a0b09"/></g><path d="m108 12s5.185185 2.646296 8 0v6.9639368s-4.444444 2.5070172-7.407407-.2785575z" fill="#969894"/><path d="m109.885708 17.2933315c1.226329.7849542 2.788856.4135316 3.729757.057225v-3.1106648c-1.3933.2742481-2.828343.0928557-4.014058-.2029868zm1.642627 3.7066685c-1.470016 0-3.073158-.4210896-4.467586-1.7566996-.283173-.271009-.45804-.629475-.490758-1.0106151l-.564089-6.4783022c-.051896-.5927646.241431-1.1650146.761521-1.4900095.521218-.32499478 1.182331-.35198771 1.728369-.0691018.057537.0280726 3.898984 1.9208165 5.616072.2796467.483988-.4642784 1.212791-.60248214 1.843443-.3509081.632908.2504944 1.044693.8400199 1.044693 1.4954081v6.7482314c0 .5690109-.311377 1.0969925-.821314 1.3895958-.136509.0777396-2.210101 1.2427543-4.650351 1.2427543z" fill="#0a0b09"/><path d="m9 90 88 4.1022244-12.89259 89.4070546-37.5813691 9.490721-32.3895554-14.114376z" fill="#eea32d"/><path d="m15.4265762 178.146458 30.7735891 13.423628 35.7645997-9.042197 12.4162493-86.1907763-83.9038476-3.9140192zm30.627423 16.853542c-.2338658 0-.4654829-.047854-.6802347-.141336l-32.2532398-14.069102c-.5790427-.253738-.9669451-.806842-1.0029244-1.432284l-5.11468973-88.5934972c-.02810887-.4729764.14841482-.9337111.48459689-1.2698026.33618206-.3360915.79941621-.5085888 1.27839133-.4930084l87.62658611 4.0876294c.4733534.0222577.9174735.2414962 1.2199249.603184.3024514.3628008.437374.8346644.3710371 1.2998506l-12.8390067 89.1132142c-.0955702.668845-.5902863 1.214159-1.2525312 1.382205l-37.4207742 9.460641c-.1371713.0345-.2777157.052306-.4171356.052306z" fill="#0a0b09"/><path d="m48.3222533 94-2.3222533 97 36.1603119-9.920707 12.8396881-85.8656249z" fill="#f2bb2a"/><path d="m96.9709428 94 9.0290572-5.6562386-87.288035-3.3437614-9.711965 4.990542z" fill="#eea32d"/><path d="m14.9054644 89.5850504 80.9512811 3.9225014 4.0783173-2.7155779-81.1851631-3.3086351zm81.4134229 7.4149496c-.0258619 0-.0528483 0-.0787102-.0011561l-87.63378447-4.2461973c-.75899205-.0381499-1.39991867-.5907452-1.56521027-1.3525867-.16641603-.7629976.18215809-1.5444922.8534444-1.9121183l9.67461864-5.2866487c.2642417-.143351.5588431-.2046221.8590666-.2011539l86.952378 3.5421587c.734255.0300575 1.365061.5456589 1.559588 1.2751308.193403.728316-.093328 1.5028741-.709517 1.9132744l-8.9943366 5.9906874c-.2743616.182657-.592576.2786097-.9175371.2786097z" fill="#0a0b09"/><path d="m84 184 12.936911-89.2246971 9.063089-5.7753029-14.2568883 87.974477z" fill="#f2bb2a"/><path d="m97.9553519 95.4055533-11.9627308 83.5316897 3.7414899-3.436673 13.350037-83.4028836zm-14.2823429 89.5944467c-.2654172 0-.5319496-.063293-.7784084-.190988-.6256261-.327566-.9780288-1.01268-.8776609-1.710008l12.7333326-88.9148853c.0680271-.4763595.3412507-.9005304.7471828-1.1614732l8.9204699-5.7551776c.553139-.3575472 1.266865-.3564369 1.822234.0022208.553138.3586576.841975 1.0082387.739376 1.6589302l-14.0325381 87.6668011c-.0591055.368651-.241998.708432-.517452.961602l-7.6223794 7.001041c-.3156011.290923-.7226484.441937-1.1341565.441937z" fill="#0a0b09"/><path d="m47.9646427 100 41.0353573 1.28288-11.8838556 77.723465-31.1161444 6.993655z" fill="#fad443"/><path d="m49 99.9933788-2.0166481 86.0066212-27.2064166-10.750127-4.7769353-77.249873z" fill="#f2bb2a"/><path d="m24.9146258 146.352096c1.4346404 2.667858 3.3565814 3.955178 5.2910173 3.976263 3.1078196.033293 4.7685038-1.575856 4.8287065-6.822792l.2896542-25.505567 8.6759962.09322-.2987414 26.230239c-.0863283 7.597403-3.9676951 13.766547-12.4096961 13.675547-5.8635103-.064366-9.7062565-2.457004-12.2915625-7.248939z" fill="#0a0b09"/><path d="m54.9414629 146.068973c2.6118208 2.45517 6.0324063 4.192434 9.1297081 4.227045 3.4983513.039077 5.2347511-1.396734 5.2614137-3.762584.0277735-2.487548-2.0852351-3.300355-5.3391795-4.791991l-4.7925969-2.238569c-3.8816257-1.680323-7.5121789-5.118007-7.4488553-10.881348.0722111-6.552701 5.6902367-11.706436 13.4323802-11.620466 4.3004503.048009 8.8108683 1.918136 11.983714 5.350238l-4.304894 5.59475c-2.4429579-2.028669-4.7803765-3.207687-7.7632514-3.241182-2.8673372-.031261-4.7748218 1.280619-4.7992625 3.525887-.0266626 2.426141 2.4296266 3.303705 5.683571 4.73505l4.7370499 2.116872c4.5070851 1.990708 7.3388722 5.236356 7.2777704 10.817707-.0722111 6.551585-5.2969637 12.197694-14.1844869 12.098326-4.8748064-.054708-10.0140166-2.053232-13.8145437-5.857126z" fill="#0a0b09"/><path d="m130.952199 147.725697c-14.849615-11.873519-33.9804019-3.781318-40.7249289 10.585662-6.744527 14.368107-13.362412 30.323782-2.3445581 29.66915 11.017854-.653506 45.59112-3.774558 55.117288-35.272396" fill="#f9ce22"/><path d="m86.9984518 190c-2.6402817 0-4.577771-.879913-5.7671992-2.617377-3.2955424-4.816599.3293279-14.758381 7.2463455-29.237248 3.8772418-8.115992 11.7358429-14.414019 20.5099979-16.434352 8.190193-1.886166 16.429049.010062 23.205734 5.33426.733349.575801.854442 1.631249.271611 2.355751s-1.650035.846371-2.385647.268334c-5.948273-4.672369-13.167457-6.341632-20.322134-4.691376-7.786172 1.792249-14.7643018 7.387017-18.20923 14.600735-3.1065467 6.499278-10.3789215 21.722772-7.5043756 25.924439.2161568.316411.8804711 1.274587 3.5003821 1.125885 29.1302405-1.698331 47.8487405-13.392113 54.1331315-33.8157.273874-.885503 1.222248-1.385276 2.118563-1.116941.896315.269452 1.403322 1.206386 1.130579 2.093006-6.735943 21.886009-26.508066 34.399328-57.1819607 36.187105-.2535032.015653-.5024796.023479-.7457975.023479" fill="#0a0b09"/><path d="m91.1321966 181.990235s-2.2950838 13.009765-14.9180444 13.009765c-12.6229607 0-7.2673828-14.868781-8.7970561-24.534102-1.5308209-9.665321-7.6506617-22.303729 1.5296733-28.251018 9.1803351-5.94729 20.2736224 11.523221 22.1854272 18.21434 2.6783627 8.921492 2.2950838 14.498539 0 21.561015" fill="#f9ce22"/><path d="m72.5114765 142.321921c-1.0546793 0-2.0448557.307074-2.9931617.926765-6.0745906 3.966464-4.2141906 11.577907-2.2462858 19.636104.5556304 2.274786 1.1304985 4.627172 1.474514 6.809947.4424674 2.819094.3338309 5.999582.2297209 9.073647-.1674812 4.929812-.3406206 10.027018 1.9441406 12.341713 1.0399681 1.052033 2.6174605 1.564192 4.8230076 1.564192 10.8364902 0 12.9537702-11.082376 13.0397741-11.554627l.0520549-.216171c2.0516455-6.362085 2.6581992-11.508068-.0101846-20.466424-1.404353-4.953091-7.8014582-15.406909-14.0616361-17.686129-.7842196-.286011-1.5333588-.429017-2.2519439-.429017zm3.2319356 53.678079c-3.1300889 0-5.5732784-.866902-7.2628022-2.577426-3.2862539-3.327928-3.0882186-9.142378-2.8969731-14.765047.0984518-2.922191.2014302-5.944153-.1923771-8.456173-.3225146-2.048638-.8555124-4.231413-1.4201958-6.542782-2.0527771-8.401853-4.3794087-17.924472 3.6642183-23.176877 2.4918496-1.627381 5.3650585-1.920044 8.3118234-.849165 7.6905583 2.802465 14.5968971 14.441344 16.1427038 19.894401 2.8754722 9.65343 2.190836 15.494486.0169745 22.272284-.9154888 4.980806-5.4691685 14.200785-16.3633718 14.200785z" fill="#0a0b09"/><path d="m34.1187246 82.3610263c-2.5237312-3.5753627-14.9315156-3.3985287-17.516938 2.6712988-.5137195 1.2068922-.6819683 2.3308934-.5675591 3.3487942.4598799 4.1014439 5.5062207 6.452231 10.9731834 5.3459132 6.8230475-1.3826209 9.5576505-7.9000595 7.1113137-11.3660062" fill="#f9ce22"/><path d="m27.1034969 81.2525063c-.5468432 0-1.1144527.0271368-1.69706.0846668-2.9026534.2887353-6.3879141 1.453446-7.4608344 3.8610213-.3945579.8835736-.5491507 1.718301-.4603175 2.4792164.1580539 1.3427279 1.0625373 2.2208742 1.7928153 2.7212765 1.8193499 1.24395 4.5950988 1.6618565 7.4262241 1.112608 3.0122528-.5818126 5.4061342-2.3348487 6.4063729-4.6892359.6299081-1.4816683.5676095-2.9579092-.1649759-3.9489445-.6368302-.8618642-2.932649-1.6206086-5.8422245-1.6206086zm-2.7919003 13.7474937c-2.6765325 0-5.1892428-.681676-7.0697376-1.9690449-1.829733-1.2526338-2.964952-3.0262939-3.1956876-4.9964243-.1557465-1.3177621.0830648-2.6963106.7083582-4.0965686 1.407487-3.1565504 5.2538488-5.3394332 10.2884988-5.83875 3.9813421-.3951115 8.8498625.3527782 10.7442014 2.9144904 1.3994112 1.8919765 1.6001512 4.5155605.5376139 7.0164863-1.4328678 3.3736448-4.7693041 5.8680578-8.9236979 6.6713065-1.0360027.1997267-2.0754664.2985046-3.0895492.2985046z" fill="#0a0b09"/><path d="m108.648762 76.7683709c-14.3495195-5.6040254-32.4758848-2.242731-41.9145996 5.9772536-9.4409805 8.2199845-3.0201169 14.1983589 4.1529438 14.944815 7.1753264.7464562 21.1453494-5.6040254 32.0975208-3.3624152 10.949906 2.2416102 14.308738 6.2115017 26.015373 16.6719757" fill="#f9ce22"/><path d="m128.310795 113c-.405491 0-.809856-.142362-1.133122-.430423-1.270538-1.134447-2.443082-2.19104-3.537907-3.176452-8.94445-8.065696-12.292002-11.0831033-21.538318-12.9727364-6.028296-1.2289844-13.2156199.344783-19.5592977 1.7350368-4.8084447 1.0532564-8.9602196 1.9619266-12.1895031 1.6271532-4.9627565-.5149501-8.8937642-3.094149-10.015622-6.5697837-.790707-2.4490712-.5733189-6.375148 4.9469874-11.1709677 10.3118555-8.9610203 29.3811853-11.6992643 43.4122924-6.2305617.8673.3369975 1.293065 1.3068386.950651 2.163235-.342415.8575086-1.32573 1.2790335-2.191903.9398116-12.9520514-5.0471776-30.495159-2.5747501-39.9385884 5.6321964-3.2382944 2.8127616-4.6451221 5.5309859-3.9602932 7.6530694.703977 2.1799181 3.5773297 3.8949352 7.1501539 4.2652989 2.6807445.2758263 6.7716958-.618385 11.1036889-1.5670942 6.675955-1.462547 14.2406105-3.1230663 20.9751368-1.7439344 10.155291 2.0742587 14.222588 5.7411923 23.133248 13.7746348 1.089193.983188 2.257232 2.035332 3.524391 3.164218.692713.618385.746778 1.672754.121647 2.356758-.333404.364803-.79296.550541-1.253642.550541" fill="#0a0b09"/></g></svg>